<svg t="1587646577164" class="icon" viewBox="0 0 1024 1024" version="1.1" xmlns="http://www.w3.org/2000/svg" p-id="1984" width="200" height="200">
  <path d="M145.066667 0l66.56 746.666667 300.373333 85.333333 299.946667-85.333333L878.933333 0h-733.866666z m584.106666 695.893333L512 767.146667l-217.6-71.253334-49.493333-554.666666h534.613333l-49.493333 554.666666z" p-id="1985"></path>
  <path d="M281.173333 298.666667h152.746667v64h-81.066667l5.546667 62.293333h75.52v64h-142.933333l-16.64-190.293333z m27.306667 308.053333h64l4.266667 47.573333 135.253333 37.546667 135.68-37.546667 14.08-156.373333H402.773333l-5.973333-66.56h271.36l5.973333-64.853333H350.293333l17.92 202.24z m356.693333-308.053333l-16.64 190.293333h-143.36v-64h76.373334l-5.973334-62.293333h-70.4v-64h160z" p-id="1986"></path>
</svg> 