<svg viewBox="0 0 1024 1024" xmlns="http://www.w3.org/2000/svg" width="200" height="200">
  <path d="M0 0h1024v1024H0V0z m914.3 737.3c-13-60.9-43.5-112.1-148.5-159.6-36.5-17.4-77-29.5-89.1-57.6-4.5-16.3-5.2-25.5-2.3-35.3 7.5-32 44.5-41.6 73.5-32.8 18.9 5.7 36.3 20.3 47.2 42.7 50-32.7 50-32.7 84.8-54.5-12.9-20-19.5-29-27.9-37.6-29.8-33.3-69.8-50.5-134-49.1l-33.6 4.2c-32.2 8.1-62.9 25.4-81.3 48.9-54.3 61.8-38.7 169.1 27.2 213.7 65.1 48.2 160.4 58.9 172.6 104.7 11.9 55.6-41.1 73.2-92.7 67-38.4-8.4-59.6-27.9-82.6-63.5-42.5 24.7-42.5 24.7-85.8 49.6 10.3 22.8 21.2 32.9 38.5 52.6 82.2 83.5 287.8 79.4 324.8-47.1 1.3-4.3 10.4-32.9 3.2-77z m-394.9-301.7H411.2c0 90.7-0.4 180.3-0.4 271.3 0 57.7 2.9 110.7-6.5 127-15.7 32.1-56.1 28.1-74.4 22.4-18.8-9.1-28.3-21.8-39.4-39.9-3-5.1-5.3-9.1-6.1-9.5-36.5 22.4-36.5 22.4-73.9 45.5 12.2 25.9 30.1 48.3 53.1 62.6 34.4 21.1 80.5 27.8 128.9 16.5 31.4-8.1 58.5-24.8 72.7-50.4 20.5-33.1 16.1-73.1 15.9-118.1 0.5-72.4 0-144.9 0-218.1z"></path>
</svg> 