<svg t="1595257213001" class="icon" viewBox="0 0 1024 1024" version="1.1" xmlns="http://www.w3.org/2000/svg" p-id="5426" width="200" height="200">
  <path d="M880 112H144c-17.7 0-32 14.3-32 32v736c0 17.7 14.3 32 32 32h736c17.7 0 32-14.3 32-32V144c0-17.7-14.3-32-32-32z m-40 728H184V184h656v656z" p-id="5427"></path>
  <path d="M418.6 598.4c0-53-43-96-96-96s-96 43-96 96 43 96 96 96 96-43 96-96z m-96 56c-30.9 0-56-25.1-56-56s25.1-56 56-56 56 25.1 56 56-25.1 56-56 56z" p-id="5428"></path>
  <path d="M693.6 598.4c0-53-43-96-96-96s-96 43-96 96 43 96 96 96 96-43 96-96z m-96 56c-30.9 0-56-25.1-56-56s25.1-56 56-56 56 25.1 56 56-25.1 56-56 56z" p-id="5429"></path>
</svg> 